HIERARCHY
ROOT pelvis
{
  OFFSET 0 100 0
  CHANNELS 6 Xposition Yposition Zposition Zrotation Xrotation Yrotation
  JOINT pelvis_right_femur
  {
    OFFSET -10.78128 -3.44521 -0.5502486
    CHANNELS 3 Zrotation Xrotation Yrotation
    JOINT right_femur_tibia
    {
      OFFSET -0.8047443 -44.0398 -0.1307829
      CHANNELS 3 Zrotation Xrotation Yrotation
      JOINT right_tibia_foot
      {
        OFFSET 3.006224 -47.83518 -5
        CHANNELS 3 Zrotation Xrotation Yrotation
        End Site
        {
          OFFSET 0 -5 15
        }
      }
    }
  }
  JOINT pelvis_left_femur
  {
    OFFSET 10.78128 -3.44521 -0.5502486
    CHANNELS 3 Zrotation Xrotation Yrotation
    JOINT left_femur_tibia
    {
      OFFSET 0.8047443 -44.0398 -0.1307829
      CHANNELS 3 Zrotation Xrotation Yrotation
      JOINT left_tibia_foot
      {
        OFFSET -4.370144 -48.10324 -4.275266
        CHANNELS 3 Zrotation Xrotation Yrotation
        End Site
        {
          OFFSET 0 -5 15
        }
      }
    }
  }
  JOINT pelvis_spine1
  {
    OFFSET 0 6.468898 -3.129235
    CHANNELS 3 Zrotation Xrotation Yrotation
    JOINT spine1
    {
      OFFSET 0 23.15396 4.99043
      CHANNELS 3 Zrotation Xrotation Yrotation
      JOINT spine2
      {
        OFFSET 0 20.79997 -5.064912
        CHANNELS 3 Zrotation Xrotation Yrotation
        JOINT neck
        {
          OFFSET 0 14.38658 9.616178
          CHANNELS 3 Zrotation Xrotation Yrotation
          End Site
          {
            OFFSET 0 20 0
          }
        }
      }
      JOINT right_manubrium
      {
        OFFSET -5.722621 16.35077 3.967754
        CHANNELS 3 Zrotation Xrotation Yrotation
        JOINT right_clavicle
        {
          OFFSET -13.16364 1.694482 -4.693211
          CHANNELS 3 Zrotation Xrotation Yrotation
          JOINT right_humerus
          {
            OFFSET -28.5034 -0.3100689 -2.792744
            CHANNELS 3 Zrotation Xrotation Yrotation
            JOINT right_radius
            {
              OFFSET -25.15693 0.02248979 -1.271978
              CHANNELS 3 Zrotation Xrotation Yrotation
              End Site
              {
                OFFSET -15 0 0
              }
            }
          }
        }
      }
      JOINT left_manubrium
      {
        OFFSET 5.722621 16.35077 3.967754
        CHANNELS 3 Zrotation Xrotation Yrotation
        JOINT left_clavicle
        {
          OFFSET 13.16364 1.694482 -4.693211
          CHANNELS 3 Zrotation Xrotation Yrotation
          JOINT left_humerus
          {
            OFFSET 29.39168 -1.063119 -2.237045
            CHANNELS 3 Zrotation Xrotation Yrotation
            JOINT left_radius
            {
              OFFSET 24.59957 -0.9528479 0.9047498
              CHANNELS 3 Zrotation Xrotation Yrotation
              End Site
              {
                OFFSET 15 -0 -0
              }
            }
          }
        }
      }
    }
  }
}
MOTION
Frames: 11
Frame Time: 0.0416666666667
-273.8031 100.2221 2867.486 -3.131241 -3.999109 -20.69654 8.111243 -16.86013 -0.1462007 -0 13.38278 -0 -11.33687 2.560485 -2.315049 -3.170204 8.042843 -5.6911 -0 53.28271 -0 1.461921 -6.070895 12.27033 -1.94849 -0.5947682 3.849553 0.8900645 11.06136 -6.919197 0.8053668 21.5993 7.428422 5.094255 -21.64993 7.379331 3.756212 -17.55194 10.99066 89.15699 36.2878 -19.50149 -0 0 10.2436 -15.08924 9.037151 6.184288 8.372978 -23.46907 -4.349564 -85.3079 13.47663 11.79245 0 0 -23.20091 18.63074 9.667226 -9.766629
-276.1701 101.6744 2873.135 -3.231647 -4.71851 -21.60376 7.961779 -11.16801 0.4126876 -0 13.41292 -0 -11.94583 -0.2574057 -2.61872 -2.718439 2.163607 -5.558878 -0 59.65046 -0 1.229809 -4.121118 12.71959 -1.895191 -0.552525 4.027976 0.7213927 11.1368 -6.557099 0.977987 21.83399 7.243592 5.103308 -21.50302 7.369643 3.905863 -17.60294 10.99539 88.50354 35.84153 -18.50322 -0 0 10.81489 -15.45732 9.232938 6.237819 8.11245 -23.07325 -4.230257 -86.56029 13.86844 13.11553 0 0 -19.90801 18.19374 10.65755 -9.23777
-278.3547 103.0622 2878.322 -2.894045 -5.430813 -22.47314 7.136521 -5.393422 0.5692295 -0 11.83757 -0 -12.12719 -2.958387 -2.551117 -2.270784 -4.52392 -5.472616 -0 61.78867 -0 1.130761 -3.390586 13.31361 -1.816204 -0.5241869 4.275786 0.4724269 11.23242 -6.111095 1.13004 22.10058 7.060169 5.156064 -21.22434 7.2846 4.022002 -17.73298 11.00297 87.74516 35.21749 -17.29653 -0 0 11.57477 -16.10101 9.437292 6.409833 7.845379 -22.68098 -4.136682 -88.02389 14.18526 14.74723 0 0 -16.13526 17.63951 11.73352 -8.594603
-280.374 104.0476 2883.128 -2.438985 -5.953307 -23.18937 6.267859 -0.07509192 0.5935591 -0 9.665 -0 -11.94307 -5.231957 -2.208192 -1.434038 -11.08051 -5.073158 -0 58.7158 -0 1.12106 -3.418596 13.97113 -1.722945 -0.5368834 4.608516 0.1713243 11.33213 -5.618395 1.219408 22.3565 6.914502 5.242243 -20.8415 7.126233 4.062132 -18.0191 11.01917 86.93171 34.47428 -15.94131 -0 0 12.55801 -16.98191 9.609537 6.731645 7.576338 -22.33454 -4.086389 -89.59369 14.37437 16.67829 0 0 -12.26649 16.97481 12.72456 -7.828663
-282.2522 104.3997 2887.699 -2.181437 -6.087453 -23.76394 5.842458 4.401432 0.6981818 -0 7.873998 -0 -11.51661 -7.354275 -1.826271 0.02925164 -16.71904 -4.131565 -0 50.79299 -0 1.255706 -3.590693 14.66233 -1.629728 -0.6176007 5.025957 -0.1366593 11.41133 -5.127687 1.211219 22.55579 6.83804 5.342651 -20.39861 6.910186 3.999611 -18.518 11.04918 86.11261 33.69063 -14.52047 -0 0 13.77047 -18.0066 9.718108 7.208257 7.308194 -22.06495 -4.088323 -91.14891 14.40265 18.86653 0 0 -8.709131 16.22175 13.47847 -6.947459
-284.0021 104.0494 2892.205 -2.240533 -5.758385 -24.2754 5.915009 7.860922 0.8994646 -0 6.963603 -0 -10.89072 -9.746936 -1.539688 1.954597 -20.92741 -2.753832 -0 39.68998 -0 1.552648 -3.50685 15.26298 -1.54817 -0.7812824 5.506381 -0.403548 11.44667 -4.688357 1.090603 22.66324 6.845037 5.436842 -19.9371 6.657826 3.837514 -19.23436 11.09469 85.33125 32.94053 -13.13342 -0 0 15.16831 -19.04957 9.75275 7.808013 7.046072 -21.88715 -4.140563 -92.57539 14.26266 21.22207 0 0 -5.787158 15.41828 13.91073 -5.983089
-285.6413 103.1058 2896.838 -2.542616 -5.094728 -24.79824 6.185288 10.36136 1.113282 -0 7.098625 -0 -10.05103 -12.45183 -1.330496 3.801085 -23.43582 -1.365016 -0 27.91588 -0 1.933759 -3.077733 15.62957 -1.48426 -1.020936 6.009728 -0.5946759 11.42826 -4.338372 0.8699171 22.66681 6.926588 5.51033 -19.485 6.389825 3.608483 -20.10988 11.1531 84.62474 32.27521 -11.8815 -0 0 16.65374 -19.98732 9.725518 8.465767 6.7981 -21.80038 -4.232974 -93.78468 13.97621 23.60411 0 0 -3.667638 14.6153 14.02324 -4.993018
-287.2138 101.8219 2901.797 -2.91202 -4.387252 -25.37546 6.223641 12.21307 1.266899 -0 8.344237 -0 -9.067822 -14.94882 -1.11459 4.913002 -24.26255 -0.5330257 -0 18.03537 -0 2.237097 -2.467962 15.78276 -1.438582 -1.305588 6.487243 -0.6988891 11.36658 -4.095616 0.5877525 22.58218 7.053817 5.558114 -19.06255 6.125605 3.361143 -21.03678 11.21869 84.02656 31.72001 -10.85013 -0 0 18.08995 -20.72926 9.661807 9.097406 6.574523 -21.79136 -4.350938 -94.72666 13.59446 25.83409 0 0 -2.342635 13.87217 13.89113 -4.054161
-288.7923 100.511 2907.25 -3.158104 -3.943564 -26.01353 5.692401 13.90882 1.322528 -0 10.72649 -0 -8.195354 -16.34668 -0.8230246 4.874163 -23.77644 -0.7113173 -0 11.74666 -0 2.25174 -1.98441 15.95062 -1.408032 -1.587752 6.892638 -0.729805 11.28908 -3.955392 0.2995919 22.44754 7.188414 5.584162 -18.69422 5.885895 3.141667 -21.88719 11.28374 83.56632 31.28284 -10.09288 -0 0 19.33017 -21.23723 9.588777 9.62109 6.387388 -21.83819 -4.47723 -95.39349 13.18982 27.72409 0 0 -1.660907 13.25008 13.63135 -3.251651
-290.4621 99.45182 2913.274 -3.151049 -3.944079 -26.67352 4.49541 15.87443 1.277859 -0 14.24788 -0 -7.803242 -15.78887 -0.4269818 3.702086 -22.55234 -2.04114 -0 9.324853 -0 1.820603 -1.920742 16.41312 -1.388138 -1.81746 7.190637 -0.717775 11.22764 -3.89513 0.06248868 22.31071 7.295696 5.597471 -18.41224 5.693422 2.980454 -22.54599 11.33918 83.26409 30.96591 -9.622432 -0 0 20.25076 -21.52658 9.527493 9.978785 6.249678 -21.91374 -4.59277 -95.81113 12.83951 29.11321 0 0 -1.397571 12.80197 13.36587 -2.662894
-292.2931 98.8341 2919.823 -2.87566 -4.402269 -27.26823 2.799613 18.14315 1.178682 -0 18.96601 -0 -8.162552 -12.82883 0.09528955 1.746064 -21.03256 -4.318384 -0 9.866226 -0 0.9932274 -2.409681 17.28902 -1.375423 -1.956292 7.360516 -0.6957792 11.20465 -3.885084 -0.08023663 22.21414 7.353775 5.606651 -18.24716 5.569283 2.889648 -22.93503 11.37616 83.12392 30.77223 -9.414954 -0 0 20.77501 -21.64591 9.49082 10.148 6.172189 -21.98974 -4.678989 -96.02 12.60629 29.89778 0 0 -1.338301 12.56192 13.19017 -2.341468
